# xmcd CD database file
#
# Track frame offsets:
#	150
#	19507
#	45487
#
# Disc length: 863 seconds
#
# Revision: 0
# Processed by: cddbd v1.5PL3 Copyright (c) Steve Scherf et al.
# Submitted via: CDex 1.50beta9
#
DISCID=16035d03
DTITLE=中山美穂 - 幸せになるために
DYEAR=1993
DGENRE=J-POP
TTITLE0=幸せになるために
TTITLE1=Ｐ．Ｓ．夏の国から
TTITLE2=幸せになるために　カラオケ
EXTD=YEAR: 1993
EXTT0=
EXTT1=
EXTT2=
PLAYORDER=
